<?xml version="1.0" encoding="UTF-8"?><svg id="_イヤー_3" xmlns="http://www.w3.org/2000/svg" viewBox="0 0 566.93 566.93"><defs><style>.cls-1{fill:none;}.cls-2{fill:#4a7f60;}</style></defs><rect class="cls-1" y="0" width="566.93" height="566.93"/><g><path class="cls-2" d="M514.08,119.82c-.74-1.04-1.84-1.73-3.11-1.94-1.25-.19-2.52,.08-3.55,.82-1.04,.74-1.72,1.85-1.93,3.1-.21,1.26,.08,2.52,.83,3.56,33.17,46.48,50.7,101.34,50.7,158.63,0,117.32-76.13,222.13-186.66,259.2,6.85-3.97,13.42-8.5,19.59-13.5l.4-.23c.87-.74,1.72-1.47,2.57-2.2l2.24-1.93c32.1-27.64,58.66-58.15,78.8-90.47l.46-.46c14.97-21.76,30.16-35.09,33.97-38.28,1.15,.16,2.29,.25,3.48,.25,3.05,0,7.54-.58,11.63-3.31,2.97-1.97,4.72-4.31,5.2-6.97,.52-2.93-.64-5.31-1.71-6.8-3.57-4.91-8.32-5.59-13.75-1.97-3.65,2.43-8.06,9.24-8.87,13.58-1.9,1.57-6.67,5.67-12.91,12.16,6.81-14.41,10.07-24.56,11.17-28.29,4.87-1.72,18.15-7.18,21.42-16.57,2.32-6.65,.82-11.04-.85-13.55-2.03-3.09-4.93-4.36-6.81-4.88-.88-2.13-2.3-3.7-4.24-4.65-5.12-2.52-8.71-1.15-10.8,.44-.35,.26-.61,.57-.84,.86-2.61-.23-7.88-.21-11.42,3.05-2.69,2.47-3.78,6.07-3.25,10.69,1.3,10.9,7.88,19.77,10.45,22.86-2.35,7.96-18.22,56.69-69.15,112.27,10.6-18.97,17.88-40.86,21.67-65.21,4.25-27.37,4.46-55.43,.63-83.25,3.38-19.85,8.5-31.64,10.38-35.49,19.64-2.57,35.06-11.19,45.82-25.62,26.12-34.98,16.35-92.04,15.92-94.46-.2-1.06-.91-1.96-1.87-2.4-.98-.47-2.14-.4-3.07,.17-42.08,25.24-65.84,52.12-70.63,79.91-3.53,20.5,4.61,34.96,7.82,39.69-1.29,2.65-4.35,9.52-7.3,20.7-10.9-55.44-34.3-94.67-42.48-107.12,22.63-11.3,65.75-17.02,67.62-17.26,1.44-.18,2.58-1.25,2.84-2.66,.26-1.42-.41-2.83-1.69-3.51-17.95-9.53-33.11-9.22-44.25-6.13,5.65-3.71,11.97-7.02,18.86-9.88,2.95-1.22,5.9-2.38,8.8-3.52l.47-.19c17.15-6.74,31.97-12.57,36.45-25.19,2.75-7.73,1.05-17.03-5.21-28.4,10.57-16.02,12.91-30.84,6.1-38.79-7.98-9.32-29.15-4.23-39.28-1.09-.4-2.63-1.68-5.09-3.6-6.86,2.68-11.57,.86-20.77-5.42-27.35-10.64-11.14-34.44-13.7-65.31-7.02-3.46,.75-6.72,1.42-9.85,2.06-12.47,2.56-23.23,4.77-36.54,9.92-13.22,5.11-15.68,15.31-16.03,20.5-5.96,0-11.27,2.07-15.79,6.15-3.23,2.93-5.58,6.86-6.86,11.42-7.31-2.35-15.2-.64-21.79,4.81-10.64,8.8-15.98,25.2-12.7,38.99,2.11,8.86,6.53,14.37,13.49,16.78-5.29,5.23-13.46,16.36-6.02,30.27l1.25,2.34c9.25,17.44,17.24,32.5,50.49,33.15,10.34,.19,20.12-1.22,29.59-2.61l.84-.13c6.46-.95,13.08-1.93,19.27-2.26-13.25,5.65-30.07,18.35-31.52,46.53-.07,1.42,.76,2.72,2.09,3.24,1.28,.5,2.82,.11,3.73-.95,.31-.37,31.61-37.06,53.66-39.97,9.9,14.71,53.17,84.91,47.32,179.07-4.26-5.89-7.88-9.99-9.7-11.93,1.67-5.46,5.19-21.69-4.28-40.26-12.81-25.12-43.48-43.75-91.16-55.38-1.06-.25-2.16,.04-2.95,.74-.81,.72-1.22,1.79-1.08,2.86,.3,2.42,7.61,59.64,43.18,85.49,11.08,8.05,23.79,12.14,37.78,12.14,4.21,0,8.77-.42,13.56-1.25,2.51,2.7,8.06,9.02,13.77,17.99-.56,5.66-1.15,10.43-1.86,14.99-14.91,96.02-80.56,126.01-118.26,135.32-13.4,1.99-26.98,3-40.37,3-2.63,0-4.78,2.14-4.78,4.78s2.14,4.78,4.78,4.78c156.01,0,282.93-126.92,282.93-282.93,0-59.31-18.15-116.08-52.49-164.18Zm-126.45,87.85c1.2,.42,2.41,.96,3.62,1.62-16.83,5.23-35.47,22.97-45.06,33.06,7.03-30.59,36.88-34.3,41.44-34.68Zm19.09-3.96c.09-.14,.18-.28,.27-.42,.68-.83,13.6-16.05,35.54-16.05,5.13,0,10.76,.83,16.83,2.88-12.72,2.11-35.74,6.58-52.65,13.6Zm-86.55,.46c-29.37-.58-36.18-13.41-44.8-29.65l-1.26-2.35c-7.35-13.75,5.85-23.78,8.68-25.75,3.22,.06,6.76-.22,11.27-.96,.26,4.05,1.52,13.27,7.34,22.69,6.03,9.74,14.59,14.2,32.65,16.99,.32,.14,.73,.27,1.18,.27l.31-.04c4.2,.61,9.14,1.19,15.11,1.77,17.59,1.72,28.94,7.71,35.99,13.48-11.37-2.91-24.43-.99-37.13,.87-9.05,1.33-19.26,2.89-29.33,2.67Zm-13.56-126.3c3.81-3.46,7.89-4.57,11.56-4.57,2.95,0,5.64,.72,7.72,1.52l-.56,.89c-.91,1.46-1.86,2.97-2.84,4.5-9.3,14.42-.65,24.05-.28,24.46h.01c-1.52,4.42-.87,11.16,1.77,18.29-12.36-3.89-19.36-13.62-21.83-21.75-2.81-9.2-1.06-18.37,4.45-23.35h0Zm134.33-31.95c4.39,4.59,5.72,11.34,3.95,20.07-4.72-.39-11.72,2.32-19.85,15.25,.44-4.49,.67-8.93,.68-13.26,.02-13.33-11.53-20.43-34.35-21.12-.44-.01-.87-.02-1.31-.02-9.41,0-19.16,2.94-27,8.17-18.93-4.21-26.79,4.2-33.55,14.23-1.28-.54-3-1.15-5.04-1.63,.09-3.78,1.67-11.16,11.92-15.13,12.79-4.95,23.31-7.11,35.48-9.61,3.16-.65,6.43-1.33,9.91-2.08,28.54-6.19,50.12-4.32,59.16,5.13Zm-3.98,116.77c16.42-8.45,23.34-15.78,40.08-33.5,2.21-2.35,4.32-4.83,6.55-7.73,4.1,8.31,5.18,14.92,3.32,20.19-3.48,9.8-17,15.11-32.66,21.27l-.75,.3c-2.84,1.12-5.72,2.26-8.61,3.45-20.27,8.39-32.27,18.76-39.27,27.29,4.57-12.76,14.48-22.58,31.35-31.26Zm-36.81-69.4c-.08,9.38,.67,14.65,1.41,17.55-1.08,.6-2.21,1.14-3.44,1.63-2.15-2.64-7.99-7.96-20.1-7.96-.94,0-1.91,.03-2.93,.1,5.92-6.55,10.45-9.99,14.52-13.1,2.1-1.6,4.09-3.11,6.11-4.9,1.36-1.21,1.48-3.29,.28-4.65-1.2-1.35-3.27-1.47-4.65-.28-.73,.65-1.45,1.25-2.18,1.84-1.63-2.58-4.46-7.87-3.16-11.78,.86-2.61,3.65-4.51,8.29-5.66,3.98-.99,6.9-.97,8,.08,2.01,1.91,.66,8.92-.44,14.64-.78,3.97-1.66,8.47-1.7,12.48Zm-45-4.67c.42-1.36,1.26-2.62,2.41-3.65,2.82-2.52,8.43-6.22,17.06-6.22,1.68,0,3.46,.14,5.36,.45,1.02,3.48,2.73,6.48,3.96,8.37-5.31,4.09-10.83,8.76-18.5,18.22-4.24,.58-7.57,1.02-10.62,1.18-2.25-7.75-.77-14.78,.34-18.35Zm53.17-6.55c1.63-8.36,3.16-16.26-1.48-20.67-1.84-1.74-4.35-2.6-7.59-2.6-1.92,0-4.1,.3-6.54,.91-6.98,1.72-11.34,5.09-12.96,9.99-.29,.85-.47,1.76-.56,2.77-10.22-1.24-17.66,1.73-22.41,4.84-.65-2.74-.15-5.56,1.49-8.4,5.22-9.04,19.67-15.71,32.89-15.47,27.99,.85,27.96,11.15,27.96,14.53-.03,14.66-2.66,26.32-2.93,27.52v.02c-3.27,4.85-6.04,8.31-8.79,10.93-.39-2.67-.72-6.81-.67-13.07,.03-3.35,.82-7.38,1.58-11.28Zm-75.18-6.35l.29-.18,.17-.26c.15-.22,.2-.44,.22-.62,6.38-9.79,11.76-14.78,22.49-13.95-1.56,1.65-2.79,3.27-3.73,4.9-3.05,5.29-3.42,11.07-1.06,16.36-1.27,1.55-2.14,3.09-2.64,4.69-1.21,3.86-2.85,11.41-.91,20.04-3.89-.63-7.45-2.16-11.6-4.94-2.93-1.96-5.31-2.63-7.2-2.63-1.01,0-1.87,.19-2.59,.47-1.2-1.69-4.09-7.21,1.46-15.81,.91-1.41,1.77-2.79,2.62-4.14l.27-.43c.77-1.22,1.49-2.37,2.22-3.5Zm-4.48,30.26c.41-.6,1.99-.12,4.03,1.25,11.99,8.05,19.73,7,33.81,5.07,2.08-.29,4.3-.59,6.72-.89,9.44-1.15,14.78,1.07,17.65,3.19-2.32,.5-5.02,.98-8.59,1.51-14.84,2.21-25.73,14.53-32.39,24.82-1.7-.71-4.18-1.63-7.38-2.52-12.09-8.9-16.56-28.5-13.85-32.44Zm-28.07,38.29c1.95-.38,3.89-.75,5.75-1.07,19.2-3.21,33.75,1.02,40.12,3.49-.58,1.06-1.04,1.95-1.37,2.62-4.06,1.63-7.36,4.5-10.07,8.75-4.89,7.67-6.88,14.25-5.95,19.56-11.83-2.39-17.72-5.88-22.08-12.92-5.5-8.9-6.3-17.66-6.4-20.42h0Zm173.23-21.38c-3.7-1.63-11.57-4.46-21.58-4.46-.81,0-1.62,.02-2.45,.06-3.55-19.49-.31-28.29,3.43-35.48,11.78-4.11,30.72-7.98,35.79-2.05,5.45,6.38,1.23,23.74-15.19,41.93Zm-25.9-43.96c-3.55,6.69-8.89,16.74-4.69,40.3-3.55,.62-6.9,1.56-10.21,2.87-10.75,4.27-13.95,10.11-16.52,14.81-3.02,5.5-5.42,9.83-20.23,11.94-11.01,1.57-20.39,.54-28.72-.38-4.37-.48-8.22-.86-11.78-.86-.76,0-1.51,.02-2.25,.06,4.76-8.04,15.37-22.88,29.74-25.03,23.8-3.56,29.86-8.28,46.29-36.12,7.44-12.61,13.46-15.16,16.41-13.51,2.08,1.16,2.82,4.28,1.96,5.92Zm-142.66,57.78c-1.93,.32-3.91,.7-5.94,1.1-15.09,2.92-28.12,5.44-32.07-11.11-2.74-11.48,1.67-25.1,10.48-32.39,5.24-4.32,11.08-5.48,16.53-3.33-.19,3.98,.34,8.07,1.59,12.17,3.43,11.28,13.55,24.37,31.68,27.52,1.1,1.93,2.31,3.76,3.62,5.48-8.48-1.1-17.17-.91-25.9,.56Zm46.02,43.89c-5.94-.58-10.63-1.13-14.71-1.71-1.6-1.84-2.38-7.27,4.02-17.28,5.62-8.84,13.37-7.98,26.24-6.58,8.25,.9,18.5,2.03,30.36,.35,18.1-2.57,21.64-9.04,25.07-15.29,2.5-4.55,4.66-8.47,13.18-11.86,14.32-5.67,27.35-2.42,33.58-.13-14.02,14.81-20.66,21.33-35.07,28.75-22.35,11.51-33.89,25.28-37.06,44.4-6.47-7.41-20.07-18.15-45.61-20.65Zm101.19,79.36c4.04-23.17,22.89-46.04,56.07-68.03-10.03,17.36-34.03,60.02-51.41,99.41-3.24-6.19-7.13-17.16-4.66-31.37Zm10.61,34.18c18.55-42.01,44.67-87.77,53.13-102.32,1.71,18.1,2.48,55.39-15.89,79.98-8.87,11.89-21.4,19.4-37.25,22.34Zm-37.97,86.04c-16.02,1.87-30.21-1.56-42.21-10.29-24.84-18.05-35.15-53.89-38.87-71.68,14.2,13.03,51.24,47.74,81.08,81.97Zm4.84-4.46c-28.37-32.54-63.88-66.1-78.57-79.68,38.2,11.16,62.99,27.42,73.71,48.35,6.58,12.84,6.11,24.46,4.85,31.33Zm65.16-16.86c-1.46-3.21-2.38-6.37-2.74-9.45-.29-2.4,.1-4.1,1.13-5.06h0c.7-.65,1.77-1.07,3.18-1.26-1.5,4.78-1.78,10.58-1.59,15.76Zm10.19-18.01c.24-.18,.65-.48,1.44-.48,.7,0,1.53,.23,2.48,.7,.78,.39,1.19,.91,1.38,1.77,.86,3.77-2.34,11.45-8.6,20.85-1.13-11.27,.14-20.45,3.3-22.83Zm4.06,23.61c3.28-5.26,6.54-11.53,7.58-17.02,.29,.26,.53,.56,.74,.88h0c1.21,1.83,1.25,4.52,.12,7.76-.97,2.81-3.92,5.72-8.44,8.39Zm2.29,25.35c1.18-2.45,3.22-5.63,5.21-6.96,3.06-2.03,3.73-1.08,4.78,.34,.32,.44,.68,1.11,.56,1.76-.15,.8-1.01,1.77-2.37,2.67-2.66,1.77-5.8,2.1-8.18,2.19Z"/><path class="cls-2" d="M263.52,11.34h.03c38.96-2.8,77.02,2.44,113.19,15.54,.54,.19,1.08,.29,1.63,.29,2,0,3.8-1.27,4.49-3.16,.89-2.48-.4-5.22-2.87-6.12C342.59,4.35,303.2-1.05,262.88,1.81c-2.62,.19-4.61,2.48-4.43,5.11,.18,2.6,2.37,4.6,5.07,4.43Z"/><path class="cls-2" d="M211.86,453.22c-13.2-19.4-40.32-30.51-64.27-40.33-17.43-7.14-33.89-13.89-37.6-21.31-1.17-2.34-.91-3.23,1.26-7.65,2.6-5.3,6.5-13.27,5.33-28.01,1.41-.69,6.5-1.48,12.45-.96,2.58,.16,4.84-1.5,5.4-3.91,.58-2.45-.75-4.99-3.08-5.92-7.11-2.82-10.85-7.2-11.51-8.4,2.65-5.67,5.19-11.89,6.02-18.91,1.04-8.64-1.7-15.55-3.7-20.6l-.21-.52c-.29-.73-.56-1.42-.8-2.09-.74-2.08-.38-2.53,.07-3.09,.46-.57,1.98-1.34,6.67-1.79l1.06-.11c21.86-2.67,37.75-8.39,49.37-28.63,8.32-14.49,10.77-24.3,12.86-39.57,.38-2.79-1.58-5.37-4.38-5.75-2.81-.37-5.36,1.6-5.74,4.37-1.94,14.22-4.07,22.77-11.59,35.86-8.42,14.67-19.35,20.84-41.73,23.57l-.81,.09c-3.24,.31-9.98,.95-13.68,5.57-2.94,3.68-3.5,7.9-1.71,12.92,.33,.91,.71,1.89,1.14,2.97,1.77,4.46,3.77,9.53,3.04,15.58-.65,5.43-2.6,10.4-5.33,16.2-.72,1.53-1.3,4.04,0,7.31,.76,1.91,2.11,3.9,3.94,5.83-2.25,.72-4.03,1.72-5.3,2.99-1.86,1.84-2.77,4.28-2.57,6.87,1,12.66-1.98,18.75-4.39,23.67-2.21,4.53-4.71,9.66-1.21,16.68,5.43,10.85,22.78,17.96,42.89,26.21,22.6,9.26,48.21,19.76,59.68,36.62,7.79,11.45,18.42,28.82,20.74,47.38,1.01,8.15-.1,14.05-3.4,18.05-3.76,4.54-10.84,7.18-21.03,7.83-12.47,.78-24.52-.76-33.97-4.33-22.82-8.65-38.09-19.51-50.62-29.01C43.68,444.69,4.85,357.09,11.26,264.54c5.72-82.63,50.59-160,120.01-206.96,1.13-.76,1.89-1.92,2.15-3.26,.26-1.34-.02-2.7-.79-3.83-1.59-2.33-4.76-2.94-7.09-1.37C53.54,97.84,7.01,178.1,1.07,263.83c-6.65,96,33.69,186.91,107.91,243.18,13.09,9.93,29.07,21.29,53.16,30.43,8.98,3.4,19.77,5.2,31.23,5.2,2.34,0,4.7-.08,7.02-.23,13.3-.86,22.53-4.63,28.23-11.52,5.19-6.28,7.05-14.72,5.67-25.81-2.59-20.75-14.04-39.54-22.44-51.87Z"/><path class="cls-2" d="M309.1,519.66c1.52-1.14,1.83-3.31,.69-4.84-20.03-26.67-36.69-67.27-49.52-120.65,4.37-7.31,7.69-15.06,9.9-23.05,10.74-39.01-1.31-86.54-33.06-130.45-1.02-12.36-1.87-24.72-2.54-36.81,25.03,27.57,43.39,56.81,54.6,86.96,33.29,89.5,32.75,176.54,29.45,220.55l-.15,.39c-.12,.33-.25,.66-.34,.96-.24,.71-.17,1.48,.21,2.19-1.53,18.58-3.49,29.44-3.51,29.55-.3,1.6,.77,3.15,2.38,3.46,.18,.03,.36,.05,.54,.05,1.44,0,2.66-1.02,2.92-2.43,.09-.5,2.24-12.46,3.81-32.89,2.25-6.22,8.99-22.6,24.09-44.04,50.58-9.16,52.57-56.96,52.58-57.43,.03-.86-.31-1.68-.94-2.26-.56-.53-1.36-.87-2.31-.79-18.86,1.83-33.08,8.56-42.25,20.01-11.15,13.9-11.34,30.48-11.06,35.86-8.93,12.53-15.09,23.44-19.1,31.5,1.83-41.53-.19-102.8-18.46-168.7,.07-.24,.14-.59,.05-1-3.39-14.34-5.1-29.25-5.11-44.3,28.96-29.11,8.95-61.87,8.75-62.19-.45-.72-1.19-1.22-2.03-1.35-.84-.16-1.69,.08-2.36,.63-12,9.84-18.61,20.92-19.64,32.92-1.34,15.6,7.03,27.3,9.35,30.21,0,3.82,.13,7.68,.35,11.55-.55-1.53-1.1-3.03-1.65-4.52-12.23-32.88-32.63-64.56-60.65-94.18-.68-14.13-.93-23.96-1.01-28.24,4.59-1.51,10.98-4.71,16.9-11.53,3.22-3.72,4.35-7.43,3.36-11.02-1.32-4.76-6.17-7.56-8.78-8.75-.14-1.31-.43-2.55-.87-3.68-1.2-3-4.06-6.64-10.92-7-3.86-.17-7.03,1.21-9.13,3.97-.81,1.06-1.46,2.35-1.94,3.83-6.45,1.94-10.18,5.23-11.11,9.78-2.09,10.3,12.02,21.89,15.46,24.53v.59h.13c.07,3.38,.24,10.31,.66,20.12-8.62-8.6-17.95-17.05-27.76-25.13-5.12-30.74,2.3-52.39,4.57-58.05,3.38,.26,6.86,.39,10.36,.39,18.35,0,50.43-3.66,59.08-28.18,5.5-15.59-1.66-22.66-4.99-24.98-3.54-2.46-8.15-3.43-12.44-2.67,.76-2.67,1.28-5.05,1.59-7.38,2.16-16.13-2.8-29.88-13.26-36.77-9.62-6.34-22.15-5.78-34.36,1.53-3.67,2.19-8.88,6.23-13.27,13.16-3.32-1.89-8.97-4.26-15.01-3.16-4.79,.89-8.75,3.77-11.77,8.56-6.86,10.85-5.52,26.07,3.87,44.02,7.08,13.53,17.36,25.87,22.67,31,.67,1.52,1.12,2.34,1.19,2.46l.03,.03c-2.21,5.5-6.69,19.06-6.77,38.73-.02,4.88,.27,9.95,.87,15.13-5.04-3.96-10.31-7.91-15.7-11.77,8.49-16.73,6.81-37.5,1.8-44.69-1.62-2.34-3.9-3.35-6.27-2.8-1.8-8.37-9.01-19.32-20.81-19.94-3.09-.19-5.19,.78-6.29,2.75-.87,1.57-.91,3.62-.13,6.09-6.8-3.96-15.81-4.62-20.41-.98-1.49,1.18-2.33,2.76-2.41,4.58-.03,.58,.01,1.19,.14,1.82-6.63-2.66-11.65-2.48-13.96,.61-2.26,3.01-2.23,7.15,.05,12.08-3.61-1.35-6.46-1.64-8.47-.9-1.58,.59-2.68,1.77-3.19,3.4-2.43,7.79,.91,15.8,3.04,19.75-1.49,.89-2.59,2.14-3.27,3.74-.79,1.87-.68,3.84,.32,5.84,.89,1.79,2.6,3.64,5.07,5.5-1.36,.65-2.4,1.63-3.02,2.85-1.02,2.02-2.22,7.46,8.61,14.28,.05,.03,4.49,3.05,14.26,4.42-.25,.69-.36,1.38-.31,2.06,.24,3.42,3.77,5.65,9.46,5.98,1.04,.06,2.1,.09,3.17,.09,14.01,0,32.66-5.54,40.09-21.03,6.69,4.82,13.24,9.83,19.51,14.91,4.55,25.3,16.11,50.09,34.35,73.68,.88,1.13,1.71,2.28,2.54,3.42l.74,1.02c4.71,56.41,12.34,107.13,22.67,150.78-9.54,14.68-23.22,25.61-40.69,32.49-.82,.32-1.46,.94-1.81,1.75-.35,.81-.37,1.7-.05,2.53,.65,1.66,2.67,2.5,4.27,1.86,16.84-6.63,30.43-16.69,40.42-29.94,12.87,51.34,29.39,90.67,49.11,116.92,1.12,1.49,3.37,1.8,4.84,.69ZM173.48,102.2c3.28,4.71,5.59,21.3-.79,36.6-.91-6.48-2.46-12.54-4.53-17.72l.02-.05-.05-.32c-1.61-10.95,1.84-18.37,4.14-19.28,.19-.07,.51-.22,1.21,.78Zm-33.99,55.46c8.01-1.07,17.42-3.78,28.01-8.07-7.47,12.04-24.11,16.73-37.27,15.97h0c-3.57-.21-4.72-1.2-4.81-1.39,0-.89,3.48-4.22,14.08-6.51Zm4.53-55.48c-4.64-3.27-10.19-6.51-14.82-7.34-1.57-1.69-3.13-4.05-3.06-5.52,.02-.34,.11-.62,.54-.95,3.3-2.6,11.52-1.27,16.61,2.53-1.35,2.36-1.11,6.15,.73,11.28Zm14.58,45.55c-6.7,2.36-12.86,3.99-18.36,4.84l-.25-.07-.31,.06c-.2,.04-.39,.09-.58,.13l-.23,.06c-8.66,1.15-13.73,.01-15.58-1.43-.35-.27-.75-.67-.69-1.06,.01-.06,.07-.25,.29-.47l.23-.17c2.31-1.97,10.1-3.1,16.05-3.18,5.95,1,12.94,1.29,19.1,1.29h.32Zm-28.43-11.44c.31-.82,.81-1.37,1.59-1.73,2.57-1.17,7.09,.1,8.48,.64l.26,.09c5.6,2.92,11.99,5.47,17.59,7.46-5.31-.01-11.76-.24-17.23-1.03-.32-.14-.68-.23-1.21-.19-6.3-1.05-8.56-2.52-9.34-3.57-.31-.4-.45-.84-.14-1.67Zm-.44-6.23c-2.01,.9-3.42,2.42-4.19,4.52-.29,.78-.42,1.56-.4,2.36-2.48-1.31-5.26-3.37-7.06-5.82-1.55-2.11-2.03-4.01-1.44-5.65,.03-.1,.06-.16,.29-.24,2.2-.84,8.86,1.52,14.24,4.33-.51,.13-.98,.3-1.44,.51Zm16.15-13.2c-4.65-2.97-8.45-4.42-11.54-4.42-.24,0-.47,.01-.73,.03-.85,.07-1.59,.3-2.23,.57-.37-.22-1.12-.65-2.11-1.19l-.18-.19c-.07-.08-7.38-7.75-3.52-11.67,1.99-2.03,11.3,2.53,20.57,10.01-.8,1.84-.88,4.14-.25,6.87Zm-19.62,5.12c-3.29-1.22-6.04-1.83-8.23-1.83-1.08,0-2.03,.15-2.84,.45-.67,.25-1.27,.63-1.77,1.12-1.69-3-2.59-6.3-2.15-8.13,.15-.61,.35-.69,.43-.72,3.93-1.59,10.59,.79,15.61,3.53-1.06,1.76-1.41,3.66-1.05,5.58Zm27.03,.16c-1.33-2.27-3.74-7.75-2.64-10.19,.18-.39,.57-.95,1.85-1.2,1.21-.23,2.5,.15,3.86,1.14,4.46,3.28,8.5,12.16,10.64,23.16-3.76-3.87-8.59-8.56-13.57-12.65l-.15-.26Zm-21.97-.39c-.41-1.04-.33-1.92,.27-2.88,.59-.96,1.31-1.4,2.42-1.48,.13-.01,.26-.01,.39-.01,6.62,0,19.85,11.45,30.35,22.42-14.77-4.84-31.04-11.98-33.43-18.05Zm33.02-16.89c-2.42-7.32-6.54-14.81-13.36-16.37-1.92-2.99-2.9-5.96-2.5-6.71,.09-.08,.56-.31,1.71-.22,10.44,.55,16.18,11.85,16.63,18.35-1,1.36-1.83,3.03-2.48,4.95Zm-13.66-11.34c4.95,1.83,8.01,9.38,9.69,15.25-.35-.32-.71-.61-1.06-.87-1.95-1.44-4.03-2.17-6.1-2.17-.55,0-1.1,.05-1.65,.16-.18,.03-.35,.08-.52,.13-2.85-5.71-4.36-11.17-3.44-12.68,.07-.12,.19-.32,.92-.23,.53,0,1.05,.08,1.55,.21l1.01,.9-.39-.71Zm-29.79,14.89c-1.56-.42-3.35-.78-5.2-.88-.06-.1-.12-.2-.21-.3-2.35-2.84-6.46-9.71-4.16-12.78,.67-.88,4.71-.8,10.65,2.12-2.92,3.02-3.29,7.16-1.09,11.84Zm-14.42,4.01c-.8,3.3,.43,8.15,2.98,12.37-1.33-.25-2.85-.45-4.42-.45-.46,0-.92,.02-1.38,.05-1.47-2.55-5.27-10.11-3.17-16.85h0c.06-.19,.07-.19,.21-.24,1.14-.43,4.07,.34,7.57,1.98-.86,.78-1.48,1.86-1.79,3.15Zm5.8,18.22c.46,1.22,1.06,2.33,1.84,3.39,3.2,4.36,8.46,7.67,12.63,8.85-2.32,.57-4.22,1.3-5.66,2.2-8.26-2.3-18.75-7.77-20.8-11.88-.43-.88-.33-1.38-.18-1.71,1.84-4.36,11.35-1.13,12.17-.84Zm5.5,18.59c-.01,.07-.03,.14-.04,.22-.36,2.18,.54,4.23,2.54,5.78,1.28,.99,3.06,1.76,5.25,2.25-.25,.16-.5,.32-.74,.48-10.59-.88-15.32-3.91-15.54-4.05-6.04-3.81-7.45-6.88-6.92-7.92h0c.28-.56,1.38-1.1,3.02-1.1,.99,0,2.18,.2,3.49,.71,2.94,1.43,6.07,2.69,8.93,3.63Zm54.08-48.88h0Zm40.64-2.67c12.53-7.26,31.27-20.83,40.21-40.85l.3-.23c2.9-2.4,7.88-2.4,11.33,0,4.42,3.07,5.35,9.41,2.53,17.38-7.43,21.05-37.75,23.9-54.38,23.7Zm-10.72-1.74c-1.96-4.73-5.7-15.67-7.15-33.14-2.78-33.36,10.33-46.42,18.39-51.24,9.86-5.89,20.02-6.51,27.36-1.68,8.29,5.46,12.16,16.83,10.35,30.39-4.18,31.32-39.38,50.89-48.95,55.67Zm-13.72-32.59c.61,7.32,1.66,14.21,3.14,20.56-13.74-17.68-25.19-41.47-16.05-55.93,2.01-3.17,4.5-5.06,7.39-5.6,4.21-.8,8.44,1.18,10.71,2.49-4.71,10.34-6.46,23.27-5.19,38.47Zm34.18,90.45c-3.83-4.37-5.7-8.12-5.2-10.59,.29-1.41,1.49-2.63,3.56-3.64-.08,4.69,.7,9.83,1.63,14.23Zm15.85,2.78c2.89-4.88,4.97-9.9,5.94-14.39,1.6,1.05,2.66,2.22,2.95,3.33,.37,1.34-.3,3-1.99,4.95-2.07,2.39-4.38,4.44-6.9,6.11Zm-9.19-24.3c.72-.95,1.68-1.37,3.13-1.37h.41c3.65,.19,4.68,1.73,5.13,2.86,2,5.04-2.23,15.69-7.74,23.45-2.56-9.79-4.01-20.88-.94-24.93h0Zm.48,97.95c-14.03-19.04-23.57-38.82-28.39-58.89,9.42,8.05,18.24,16.32,26.26,24.62,.55,11.18,1.27,22.69,2.13,34.28Zm28.69,154.41c-8.69-38.49-15.33-82.38-19.78-130.59,25.57,39.58,34.88,81.39,25.55,115.3-1.46,5.29-3.39,10.42-5.76,15.28Zm44.13-112.33c.67-14.32,2.95-28.68,6.79-42.8,3.28,8.97,6.45,25.96-6.79,42.8Zm-9.6-20.3c.65-7.59,4.03-14.87,10.04-21.68-3.47,13.38-5.59,26.97-6.31,40.49-2.36-4.9-4.36-11.42-3.73-18.81Zm101.53,166.96c-2.59,12.11-11.26,34.35-40.22,42.28,11.73-15.45,25.23-29.65,40.22-42.28Zm-43.27,36.59c.8-7.05,3.18-15.92,9.43-23.73,6.54-8.15,16.19-13.62,28.76-16.32-14.09,12.03-26.91,25.47-38.19,40.04Z"/></g></svg>